<svg width="339" height="368" viewBox="0 0 339 368" fill="none" xmlns="http://www.w3.org/2000/svg">
<path opacity="0.25" d="M195.335 61.9498C191.326 62.2686 187.319 62.0192 183.338 62.5323C178.721 63.2558 174.538 65.6701 171.603 69.306C168.597 72.8187 165.886 76.5724 163.495 80.5293C157.545 90.4776 154.855 102.415 146.562 110.871C141.344 116.184 133.194 121.951 125.931 123.969C118.118 126.199 109.804 124.112 101.884 125.248C92.716 126.582 85.4349 135.168 79.4072 141.487C73.3794 147.806 66.1207 151.715 59.3563 157.025C57.0329 159.002 55.2191 161.508 54.0678 164.333C52.9166 167.157 52.4617 170.218 52.7417 173.255C53.3053 178.51 55.8077 183.394 56.6502 188.636C57.3903 193.287 57.1636 198.374 58.9914 202.778C60.8642 207.004 63.6708 210.751 67.2003 213.737C70.1639 216.346 73.7618 217.984 76.5779 220.823C78.9835 223.253 82.3547 227.202 82.2652 230.848C82.0566 233.608 81.3199 236.302 80.0953 238.784C78.9945 241.841 77.4647 244.726 75.5518 247.353C72.6512 250.654 69.9956 254.163 67.6061 257.851C63.9549 264.198 64.5981 271.741 67.2636 278.313C69.6381 283.383 72.82 288.034 76.6852 292.085C81.5716 297.751 88.0105 301.966 91.1351 308.992C93.8464 315.152 90.5361 320.626 85.493 324.309C87.7806 324.207 89.987 323.432 91.8357 322.08C93.6844 320.729 95.0931 318.862 95.8852 316.714C98.6047 308.976 95.0963 300.916 90.2803 294.37C87.2447 290.228 83.1256 284.833 85.1347 279.42C85.9683 277.299 87.2703 275.395 88.9433 273.848C91.8503 270.836 95.6084 268.784 99.7142 267.967C103.564 267.237 108.481 266.409 111.671 263.931C114.861 261.452 115.99 257.72 117.749 254.517C119.508 251.314 122.959 249.633 125.2 246.78C127.747 243.493 127.688 238.075 126.727 234.282C125.323 228.769 121.156 224.354 119.902 218.861C117.862 210.155 126.89 198.702 135.911 198.986C141.623 199.239 147.36 200.208 153.088 199.194C158.815 198.18 163.788 194.397 169.65 192.873C174.94 191.411 180.549 191.593 185.733 193.394C192.611 195.893 200.084 196.25 207.168 194.417C217.016 191.7 221.472 183.434 229.391 177.929C232.987 175.596 236.775 173.573 240.713 171.883C245.994 169.317 250.492 165.384 253.74 160.493C258.639 153.743 260.35 145.559 262.146 137.594C263.811 130.595 266.765 124.485 267.673 117.447C268.828 108.311 274.96 101.447 270.522 92.2476C267.034 85.0156 259.368 82.2368 254.317 76.4289C250.935 72.657 248.372 68.0643 244.754 64.4152C241.74 61.5702 238.172 59.3768 234.272 57.9718C230.373 56.5669 226.226 55.9806 222.09 56.2494C217.248 56.5659 212.451 57.3781 207.775 58.6733C203.906 59.6003 199.868 61.476 195.927 61.8475L195.335 61.9498Z" fill="#F16595"/>
<path opacity="0.25" d="M220.068 41.3859C218.589 40.8698 217.065 40.4923 215.516 40.2585C210.739 39.6089 205.879 40.5031 201.645 42.8106C198.449 44.5576 195.631 46.9221 193.356 49.767C192.793 50.4734 191.287 51.7178 191.343 52.7212C191.433 54.6265 194.048 54.783 195.415 54.5232C199.995 53.6839 204.246 51.1741 208.839 50.2037C213.432 49.2334 217.651 49.2121 222.059 48.6603C223.67 48.4635 226.347 48.7382 226.39 46.4821C226.433 44.2259 223.23 42.4669 220.068 41.3859Z" fill="#FA4FCA"/>
<path opacity="0.25" d="M209.225 199.538C204.241 201.668 198.714 202.182 193.422 201.007C189.438 199.767 185.327 198.985 181.166 198.677C179.347 198.623 169.632 198.418 170.171 201.774C170.331 202.8 172.73 203.498 173.537 203.833C176.905 205.323 180.597 206.183 184.012 207.513C187.893 209.026 192.01 210.006 196.009 211.253C198.294 212.143 200.762 212.459 203.198 212.173C205.634 211.886 207.962 211.006 209.978 209.609C212.304 207.877 213.996 205.428 214.792 202.639C215.067 201.555 215.461 199.431 214.743 198.431C213.312 196.524 211.648 198.381 210.135 199.076L209.225 199.538Z" fill="#BA68C8"/>
<path opacity="0.25" d="M51.44 212.177C51.6549 210.406 52.3472 208.688 54.4606 209.259C57.3284 210.028 58.6128 214.169 60.2914 216.39C62.2418 218.894 64.6519 221.004 67.3924 222.605C68.993 223.564 78.6644 227.981 74.4599 230.283C70.8526 232.213 64.7206 229.772 61.4692 228.174C55.9556 225.415 50.6239 218.596 51.44 212.177Z" fill="#BA68C8"/>
<path d="M282.413 144.859C285.574 135.815 281.822 131.493 274.735 135.887C269.343 139.279 260.157 142.608 251.294 140.733C253.536 137.264 255.462 133.601 257.049 129.788C261.4 119.946 262.27 108.916 259.514 98.5141C256.759 88.1121 250.543 78.9589 241.89 72.562C233.237 66.1651 222.663 62.9061 211.911 63.3218C201.158 63.7375 190.868 67.8031 182.735 74.849C176.207 80.2416 169.945 88.3229 163.315 96.8781C162.929 97.3899 162.524 97.8932 162.138 98.405C156.357 89.362 156.817 77.7343 157.816 71.0553C159.173 62.8505 151.962 59.864 144.908 66.3432C137.854 72.8224 132.012 88.2333 130.467 98.9712C129.391 108.643 129.659 118.416 131.264 128.014C132.258 133.552 134.164 138.885 136.905 143.798C132.323 140.837 130.508 138.305 127.208 132.499C117.681 138.293 110.673 139.014 96.0217 143.382C75.2296 149.491 69.3837 157.302 64.1143 171.829C58.8449 186.356 62.7991 198.549 75.7157 211.569C88.6323 224.59 94.8245 224.942 95.1677 233.83C95.5386 241.525 88.747 241.5 81.8198 246.716C74.8926 251.932 73.1371 261.552 83.9063 266.933C80.4306 262.346 81.1868 256.833 84.1977 254.503C88.289 251.377 92.2075 252.701 99.6373 251.439C109.054 249.851 118.87 239.907 113.267 226.916C107.352 213.24 97.8003 207.989 97.7169 197.691C97.63 186.526 106.024 181.801 121.88 184.222C137.735 186.644 166.513 191.896 200.793 178.856C219.461 171.738 234.483 161.391 244.94 149.228C239.09 159.517 229.56 167.221 219.18 174.685C233.402 179.41 249.976 176.098 258.259 171.004C267.362 165.5 279.254 153.95 282.413 144.859Z" fill="#BA68C8"/>
<path opacity="0.8" d="M282.413 144.859C285.574 135.815 281.822 131.493 274.735 135.887C269.343 139.279 260.157 142.608 251.294 140.733C253.536 137.264 255.462 133.601 257.049 129.788C261.4 119.946 262.27 108.916 259.514 98.5141C256.759 88.1121 250.543 78.9589 241.89 72.562C233.237 66.1651 222.663 62.9061 211.911 63.3218C201.158 63.7375 190.868 67.8031 182.735 74.849C176.207 80.2416 169.945 88.3229 163.315 96.8781C162.929 97.3899 162.524 97.8932 162.138 98.4051C156.357 89.362 156.817 77.7343 157.816 71.0553C159.173 62.8505 151.962 59.864 144.908 66.3432C137.854 72.8224 132.012 88.2333 130.467 98.9713C129.391 108.643 129.659 118.416 131.264 128.014C132.258 133.552 134.164 138.885 136.905 143.798C132.323 140.837 130.508 138.305 127.208 132.499C117.681 138.293 110.673 139.014 96.0217 143.382C75.2296 149.491 69.3837 157.302 64.1143 171.829C58.8449 186.356 62.7991 198.549 75.7157 211.57C88.6323 224.59 94.8245 224.942 95.1677 233.83C95.5386 241.526 88.747 241.5 81.8198 246.716C74.8926 251.932 73.1371 261.552 83.9063 266.933C80.4306 262.346 81.1868 256.833 84.1977 254.503C88.289 251.377 92.2075 252.701 99.6372 251.439C109.054 249.851 118.87 239.907 113.267 226.916C107.352 213.24 97.8003 207.989 97.7169 197.691C97.63 186.526 106.024 181.801 121.88 184.222C137.735 186.644 166.513 191.896 200.793 178.856C219.461 171.738 234.483 161.391 244.94 149.228C239.09 159.517 229.56 167.221 219.18 174.685C233.402 179.41 249.976 176.098 258.259 171.004C267.362 165.5 279.254 153.95 282.413 144.859Z" fill="white"/>
<path d="M213.755 113.787C207.671 116.122 201.246 114.189 199.43 109.449C197.615 104.709 201.043 98.9685 207.117 96.6059C213.191 94.2433 219.626 96.2043 221.442 100.944C223.257 105.684 219.829 111.424 213.755 113.787Z" fill="#F16595"/>
<path d="M237.767 122.094C238.391 127.831 242.455 132.064 246.98 131.61C251.504 131.155 254.563 126.093 253.94 120.356C253.316 114.62 249.252 110.386 244.747 110.85C240.241 111.313 237.144 116.358 237.767 122.094Z" fill="#F16595"/>
<path d="M210.401 147.466C218.066 149.471 226.289 145.45 231.81 140.035C237.332 134.62 231.113 131.64 225.594 132.356C219.255 133.19 215.263 132.65 211.307 128.465C207.351 124.279 202.965 124.326 201.671 130.545C200.621 135.258 202.795 145.483 210.401 147.466Z" fill="#F16595"/>
<path d="M301.573 120.471C301.745 120.111 301.818 119.71 301.783 119.312C301.748 118.914 301.606 118.532 301.373 118.207C300.772 117.275 299.96 116.498 299.004 115.937C298.047 115.376 296.973 115.047 295.866 114.977C295.47 114.934 295.07 114.996 294.705 115.158C294.341 115.32 294.027 115.576 293.795 115.9L268.425 155.479C268.141 155.987 268.008 156.566 268.042 157.148C268.077 157.729 268.277 158.288 268.619 158.76C269.46 160.061 270.594 161.148 271.931 161.933C273.267 162.718 274.768 163.18 276.315 163.281C276.891 163.35 277.475 163.255 277.999 163.005C278.523 162.756 278.965 162.363 279.275 161.872L301.573 120.471Z" fill="#455A64"/>
<path d="M295.867 115.026C293.834 115.014 292.989 116.436 293.995 118.196C294.585 119.145 295.392 119.94 296.349 120.516C297.306 121.091 298.387 121.431 299.501 121.508C301.534 121.52 302.379 120.098 301.373 118.322C300.779 117.378 299.971 116.587 299.014 116.015C298.058 115.442 296.979 115.103 295.867 115.026Z" fill="#37474F"/>
<path d="M304.551 110.339C304.195 109.781 303.715 109.313 303.148 108.971C302.581 108.629 301.943 108.423 301.283 108.369C301.041 108.344 300.797 108.384 300.575 108.483C300.353 108.583 300.161 108.738 300.017 108.935L295.38 116.795C295.277 117.015 295.234 117.258 295.256 117.5C295.278 117.742 295.363 117.974 295.503 118.173C295.861 118.728 296.342 119.193 296.909 119.531C297.475 119.87 298.113 120.074 298.771 120.127C299.009 120.153 299.25 120.116 299.47 120.02C299.689 119.923 299.879 119.77 300.02 119.577L304.658 111.701C304.767 111.486 304.814 111.245 304.796 111.005C304.777 110.765 304.692 110.534 304.551 110.339Z" fill="#FA4FCA"/>
<path opacity="0.2" d="M304.551 110.339C304.195 109.781 303.715 109.313 303.148 108.971C302.581 108.629 301.943 108.423 301.283 108.369C301.041 108.344 300.797 108.384 300.575 108.483C300.353 108.583 300.161 108.738 300.017 108.935L295.38 116.795C295.277 117.015 295.234 117.258 295.256 117.5C295.278 117.742 295.363 117.974 295.503 118.173C295.861 118.728 296.342 119.193 296.909 119.531C297.475 119.87 298.113 120.074 298.771 120.127C299.009 120.153 299.25 120.116 299.47 120.02C299.689 119.923 299.879 119.77 300.02 119.577L304.658 111.701C304.767 111.486 304.814 111.245 304.796 111.005C304.777 110.765 304.692 110.534 304.551 110.339Z" fill="black"/>
<path opacity="0.2" d="M298.184 114.008C297.957 113.712 297.729 113.415 297.517 113.102L299.952 108.952C300.962 110.648 302.175 112.213 303.565 113.614L301.329 117.404C301.202 117.309 301.082 117.204 300.97 117.091C299.955 116.145 299.023 115.113 298.184 114.008Z" fill="black"/>
<path opacity="0.15" d="M295.281 119.664L269.937 160.391C269.433 159.901 268.995 159.347 268.635 158.744C268.293 158.273 268.093 157.713 268.059 157.132C268.024 156.551 268.157 155.972 268.442 155.463L293.811 115.884C293.638 116.245 293.566 116.645 293.601 117.043C293.636 117.442 293.778 117.823 294.011 118.148C294.344 118.722 294.774 119.235 295.281 119.664Z" fill="black"/>
<path d="M316.941 119.348C322.367 119.478 327.848 115.969 332.039 108.779C340.321 94.563 340.458 71.4446 332.344 57.1317C328.238 49.9258 322.832 46.3031 317.421 46.2875C316.683 46.2832 312.65 46.2594 311.765 46.2541C311.535 46.2528 311.289 46.2513 311.06 46.25C310.83 46.2486 310.83 46.2486 310.732 46.248C309.687 46.3405 308.657 46.5545 307.662 46.8858C307.531 46.885 307.382 46.9825 307.234 47.0472C307.044 47.1127 306.858 47.1882 306.676 47.2735C306.534 47.3228 306.397 47.3823 306.265 47.4514C305.952 47.5972 305.64 47.7593 305.327 47.9214C305.015 48.0835 304.768 48.246 304.488 48.4248C304.208 48.6035 304.077 48.6683 303.879 48.8147L303.434 49.14C302.604 49.7583 301.822 50.4389 301.094 51.1758C300.797 51.4691 300.517 51.779 300.22 52.1052C299.237 53.2229 298.347 54.4186 297.559 55.6803C297.343 56.0234 297.128 56.3665 296.929 56.726C288.648 70.8438 288.511 93.9786 296.625 108.373C297.346 109.653 298.149 110.885 299.03 112.06C299.834 113.109 300.722 114.09 301.685 114.995C302.408 115.678 303.189 116.297 304.019 116.845L304.492 117.159C304.656 117.259 304.819 117.358 304.983 117.441C305.146 117.524 305.309 117.623 305.473 117.706L305.816 117.889C305.944 117.956 306.075 118.017 306.209 118.071C306.568 118.237 306.945 118.387 307.305 118.52L307.73 118.67C308.237 118.821 308.745 118.955 309.253 119.057C309.4 119.057 309.531 119.058 309.662 119.059C309.794 119.06 310.4 119.162 310.777 119.18C310.935 119.19 311.094 119.19 311.252 119.183L311.629 119.185C312.924 119.341 316.302 119.328 316.941 119.348ZM311.74 50.3696C315.856 50.3938 319.92 53.5004 323.166 59.1272C326.821 66.5283 328.699 74.6802 328.65 82.9346C328.602 91.189 326.628 99.3181 322.886 106.676C319.574 112.215 315.621 115.241 311.554 115.217C307.488 115.193 303.457 112.054 300.276 106.411C296.466 99.032 294.591 90.8068 294.826 82.5055C294.679 74.2585 296.653 66.1119 300.557 58.8462C303.672 53.3553 307.658 50.3455 311.724 50.3695L311.74 50.3696Z" fill="#FA4FCA"/>
<path opacity="0.25" d="M316.941 119.348C322.367 119.478 327.848 115.969 332.039 108.779C340.321 94.563 340.458 71.4446 332.344 57.1317C328.238 49.9258 322.832 46.3031 317.421 46.2875C316.683 46.2832 312.65 46.2594 311.765 46.2541C311.535 46.2528 311.289 46.2513 311.06 46.25C310.83 46.2486 310.83 46.2486 310.732 46.248C309.687 46.3405 308.657 46.5545 307.662 46.8858C307.531 46.885 307.382 46.9825 307.234 47.0472C307.044 47.1127 306.858 47.1882 306.676 47.2735C306.534 47.3228 306.397 47.3823 306.265 47.4514C305.952 47.5972 305.64 47.7593 305.327 47.9214C305.015 48.0835 304.768 48.246 304.488 48.4248C304.208 48.6035 304.077 48.6683 303.879 48.8147L303.434 49.14C302.604 49.7583 301.822 50.4389 301.094 51.1758C300.797 51.4691 300.517 51.779 300.22 52.1052C299.237 53.2229 298.347 54.4186 297.559 55.6803C297.343 56.0234 297.128 56.3665 296.929 56.726C288.648 70.8438 288.511 93.9786 296.625 108.373C297.346 109.653 298.149 110.885 299.03 112.06C299.834 113.109 300.722 114.09 301.685 114.995C302.408 115.678 303.189 116.297 304.019 116.845L304.492 117.159C304.656 117.259 304.819 117.358 304.983 117.441C305.146 117.524 305.309 117.623 305.473 117.706L305.816 117.889C305.944 117.956 306.075 118.017 306.209 118.071C306.568 118.237 306.945 118.387 307.305 118.52L307.73 118.67C308.237 118.821 308.745 118.955 309.253 119.057C309.4 119.057 309.531 119.058 309.662 119.059C309.794 119.06 310.4 119.162 310.777 119.18C310.935 119.19 311.094 119.19 311.252 119.183L311.629 119.185C312.924 119.341 316.302 119.328 316.941 119.348ZM311.74 50.3696C315.856 50.3938 319.92 53.5004 323.166 59.1272C326.821 66.5283 328.699 74.6802 328.65 82.9346C328.602 91.189 326.628 99.3181 322.886 106.676C319.574 112.215 315.621 115.241 311.554 115.217C307.488 115.193 303.457 112.054 300.276 106.411C296.466 99.032 294.591 90.8068 294.826 82.5055C294.679 74.2585 296.653 66.1119 300.557 58.8462C303.672 53.3553 307.658 50.3455 311.724 50.3695L311.74 50.3696Z" fill="white"/>
<path d="M311.615 119.317L311.64 115.218C315.706 115.242 319.544 112.214 322.79 106.675C326.594 99.6355 328.574 91.7554 328.55 83.7539L338.387 83.8119C338.398 92.5359 336.228 101.124 332.075 108.796C327.884 115.986 322.403 119.495 316.977 119.365C316.305 119.328 312.927 119.341 311.615 119.317Z" fill="#FA4FCA"/>
<path d="M311.613 119.317C316.925 119.348 322.243 115.756 326.334 108.746C334.616 94.5295 334.752 71.4111 326.639 57.0982C322.549 49.9088 317.16 46.2861 311.749 46.2542C311.519 46.2528 311.273 46.2514 311.044 46.25C310.814 46.2487 310.814 46.2487 310.716 46.2481C309.671 46.3405 308.641 46.5545 307.646 46.8858C307.515 46.885 307.367 46.9826 307.219 47.0473C307.029 47.1127 306.842 47.1882 306.66 47.2735C306.519 47.3229 306.382 47.3823 306.249 47.4515C305.937 47.5972 305.624 47.7593 305.312 47.9214C304.999 48.0836 304.752 48.2461 304.472 48.4248C304.193 48.6035 304.061 48.6683 303.863 48.8147L303.419 49.14C302.588 49.7584 301.806 50.4389 301.079 51.1758C300.782 51.4692 300.501 51.779 300.204 52.1052C299.222 53.2229 298.332 54.4186 297.543 55.6803C297.328 56.0234 297.113 56.3665 296.914 56.726C288.632 70.8438 288.496 93.9786 296.609 108.374C297.33 109.653 298.133 110.885 299.014 112.061C299.823 113.105 300.71 114.086 301.669 114.995C302.392 115.678 303.173 116.297 304.003 116.845L304.477 117.159C304.64 117.259 304.804 117.358 304.967 117.441C305.13 117.524 305.294 117.623 305.457 117.706L305.801 117.889C305.928 117.956 306.059 118.017 306.193 118.071C306.553 118.237 306.929 118.387 307.289 118.52L307.714 118.671C308.222 118.821 308.729 118.955 309.237 119.057C309.385 119.058 309.516 119.058 309.647 119.059C309.778 119.06 310.384 119.162 310.761 119.18C310.919 119.19 311.078 119.19 311.237 119.183L311.613 119.317ZM311.457 115.217C307.358 115.192 303.359 112.053 300.179 106.411C296.368 99.0316 294.493 90.8063 294.729 82.505C294.582 74.258 296.555 66.1115 300.459 58.8457C303.673 53.3554 307.658 50.3456 311.725 50.3696C315.791 50.3936 319.904 53.5004 323.151 59.1272C326.806 66.5284 328.684 74.6802 328.635 82.9346C328.586 91.189 326.612 99.3182 322.87 106.676C319.542 112.214 315.523 115.241 311.457 115.217Z" fill="#FA4FCA"/>
<path opacity="0.45" d="M311.613 119.317C316.925 119.348 322.243 115.756 326.334 108.746C334.616 94.5295 334.752 71.4111 326.639 57.0982C322.549 49.9088 317.16 46.2861 311.749 46.2542C311.519 46.2528 311.273 46.2514 311.044 46.25C310.814 46.2487 310.814 46.2487 310.716 46.2481C309.671 46.3405 308.641 46.5545 307.646 46.8858C307.515 46.885 307.367 46.9826 307.219 47.0473C307.029 47.1127 306.842 47.1882 306.66 47.2735C306.519 47.3229 306.382 47.3823 306.249 47.4515C305.937 47.5972 305.624 47.7593 305.312 47.9214C304.999 48.0836 304.752 48.2461 304.472 48.4248C304.193 48.6035 304.061 48.6683 303.863 48.8147L303.419 49.14C302.588 49.7584 301.806 50.4389 301.079 51.1758C300.782 51.4692 300.501 51.779 300.204 52.1052C299.222 53.2229 298.332 54.4186 297.543 55.6803C297.328 56.0234 297.113 56.3665 296.914 56.726C288.632 70.8438 288.496 93.9786 296.609 108.374C297.33 109.653 298.133 110.885 299.014 112.061C299.823 113.105 300.71 114.086 301.669 114.995C302.392 115.678 303.173 116.297 304.003 116.845L304.477 117.159C304.64 117.259 304.804 117.358 304.967 117.441C305.13 117.524 305.294 117.623 305.457 117.706L305.801 117.889C305.928 117.956 306.059 118.017 306.193 118.071C306.553 118.237 306.929 118.387 307.289 118.52L307.714 118.671C308.222 118.821 308.729 118.955 309.237 119.057C309.385 119.058 309.516 119.058 309.647 119.059C309.778 119.06 310.384 119.162 310.761 119.18C310.919 119.19 311.078 119.19 311.237 119.183L311.613 119.317ZM311.457 115.217C307.358 115.192 303.359 112.053 300.179 106.411C296.368 99.0316 294.493 90.8063 294.729 82.505C294.582 74.258 296.555 66.1115 300.459 58.8457C303.673 53.3554 307.658 50.3456 311.725 50.3696C315.791 50.3936 319.904 53.5004 323.151 59.1272C326.806 66.5284 328.684 74.6802 328.635 82.9346C328.586 91.189 326.612 99.3182 322.87 106.676C319.542 112.214 315.523 115.241 311.457 115.217Z" fill="white"/>
<path d="M311.458 115.216C312.154 115.214 312.848 115.13 313.525 114.966C310.153 114.093 306.989 111.123 304.295 106.435C300.485 99.0555 298.61 90.8302 298.845 82.5289C298.698 74.2819 300.671 66.1354 304.576 58.8696C307.226 54.3106 310.44 51.4602 313.773 50.6436C313.106 50.4629 312.417 50.3707 311.726 50.3692C307.659 50.3452 303.674 53.355 300.46 58.8453C296.556 66.1111 294.583 74.2576 294.729 82.5046C294.494 90.806 296.369 99.0312 300.18 106.41C303.36 112.053 307.359 115.094 311.458 115.216Z" fill="#FA4FCA"/>
<path opacity="0.25" d="M311.458 115.216C312.154 115.214 312.848 115.13 313.525 114.966C310.153 114.093 306.989 111.123 304.295 106.435C300.485 99.0555 298.61 90.8302 298.845 82.5289C298.698 74.2819 300.671 66.1354 304.576 58.8696C307.226 54.3106 310.44 51.4602 313.773 50.6436C313.106 50.4629 312.417 50.3707 311.726 50.3692C307.659 50.3452 303.674 53.355 300.46 58.8453C296.556 66.1111 294.583 74.2576 294.729 82.5046C294.494 90.806 296.369 99.0312 300.18 106.41C303.36 112.053 307.359 115.094 311.458 115.216Z" fill="white"/>
<path opacity="0.55" d="M312.525 115.125C316.217 114.655 319.842 111.692 322.79 106.643C326.532 99.2856 328.506 91.1565 328.555 82.9021C328.604 74.6477 326.726 66.4958 323.071 59.0947C320.133 53.9452 316.561 50.8579 312.776 50.4093C309.067 50.8629 305.475 53.8095 302.527 58.8259C298.635 66.0958 296.668 74.2404 296.813 82.4852C296.572 90.7976 298.447 99.0348 302.263 106.424C305.167 111.606 308.773 114.66 312.525 115.125Z" fill="white"/>
</svg>
