<svg width="263" height="176" viewBox="0 0 263 176" fill="none" xmlns="http://www.w3.org/2000/svg">
<g opacity="0.25">
<path d="M122.051 89.8365C120.028 84.6506 120.53 78.4101 121.826 73.1723C123.278 67.3295 122.518 61.3829 121.359 55.5228C120.201 49.6626 116.173 45.5657 114.03 40.1205C112.792 36.4176 111.182 32.8499 109.224 29.4719C107.075 25.8529 104.259 22.6737 100.927 20.1026C98.7844 18.4362 96.4656 17.0102 94.012 15.8501C84.5908 11.3729 73.5275 12.8423 64.0544 16.2304C60.2168 17.5961 56.5521 19.3939 52.7145 20.725C47.0099 22.7129 41.5646 23.9229 36.3787 27.3284C32.2692 29.7709 29.1951 33.6321 27.7354 38.1843C26.3525 43.5432 26.4908 49.1786 25.4536 54.5893C24.1569 60.5708 21.7784 66.2651 18.4352 71.3918C15.0193 76.7581 13.7251 83.2046 14.8051 89.4735C16.1534 95.8522 19.991 101.401 23.8459 106.449C25.8381 108.971 27.5428 111.708 28.9282 114.608C31.1658 119.322 32.9375 124.243 34.2178 129.302C34.8924 133.349 36.1136 137.286 37.848 141.005C42.4462 149.354 50.1388 152.327 58.7647 154.557C76.0513 159 88.9471 174.022 108.083 171.757C117.764 170.617 125.664 165.258 134.774 162.509C143.884 159.761 149.623 163.667 157.955 167.09C163.331 169.285 168.24 168.075 172.718 164.687C176.382 161.921 179.217 159.086 184.075 159.225C194.17 159.519 201.361 168.248 211.059 168.853C217.701 169.351 224.293 167.382 229.573 163.322C235.623 158.827 238.389 152.69 242.624 146.709C245.477 142.716 249.539 137.115 254.725 135.94C257.353 135.335 260.118 136.631 262.314 137.668C257.37 131.169 249.625 130.149 242.538 133.917C235.814 137.478 229.59 143.408 222.002 138.031C218.285 135.387 215.848 131.324 211.975 128.852C205.061 124.444 196.141 128.247 188.587 128.195C183.631 127.968 178.86 126.251 174.896 123.269C168.69 118.861 167.618 109.872 160.289 106.501C153.927 103.597 146.58 104.496 139.96 102.784C133.339 101.073 125.508 97.1315 122.535 90.77C122.345 90.528 122.189 90.1823 122.051 89.8365Z" fill="#FA4FCA"/>
<path d="M127.082 87.2613C128.586 91.6521 132.113 95.9046 136.867 96.9418C139.339 97.4777 143.522 98.221 142.813 94.4871C142.26 91.5484 139.148 89.8716 137.299 87.7972C135.596 85.7457 134.278 83.4031 133.409 80.8826C132.683 79.0156 131.992 71.4614 128.465 74.8668C125.803 77.529 126.011 84.167 127.082 87.2613Z" fill="#FA4FCA"/>
<path d="M42.378 151.844C43.83 153.054 45.1957 154.385 45.8353 154.713C47.3401 155.539 48.9353 156.189 50.5891 156.649C53.7352 157.514 57.0024 157.565 60.1831 158.291C62.4995 158.827 69.2931 160.228 69.0511 163.65C68.8955 165.863 65.9395 164.999 64.3665 164.705C61.2329 164.163 58.0558 163.915 54.8762 163.961C50.8657 163.961 46.0082 163.495 42.7756 160.971C39.9925 158.845 36.8982 154.851 37.4167 151.152C37.7106 148.473 40.148 150.011 42.378 151.844Z" fill="#FA4FCA"/>
<path d="M61.2718 12.7739L58.4714 13.9148C56.3798 14.7618 52.4211 16.3868 50.2085 15.2113C47.9958 14.0358 49.396 11.875 50.8308 10.8205C53.4929 8.86711 56.0167 6.65444 58.6789 4.66648C61.7293 2.52974 65.2005 1.06818 68.8607 0.379403C74.3232 -0.813368 81.7046 0.776994 85.11 5.56537C86.9424 8.14106 83.1912 8.48683 81.4626 8.57326C77.6639 8.60689 73.8753 8.97124 70.1398 9.66227C67.1071 10.4661 64.142 11.5065 61.2718 12.7739Z" fill="#FA4FCA"/>
<path d="M246.997 148.387C246.329 148.758 245.742 149.257 245.268 149.856C243.27 152.417 241.64 155.245 240.428 158.258C238.931 161.638 236.635 164.604 233.738 166.901C232.86 167.572 231.916 168.151 230.92 168.63C228.829 169.598 226.547 170.358 224.524 171.361C223.522 171.862 222.122 172.969 223.072 174.161C224.54 175.419 226.43 176.074 228.362 175.994C230.64 176.01 232.904 175.63 235.052 174.87C239.65 173.29 243.439 169.961 245.597 165.605C246.547 163.794 247.251 161.863 247.688 159.865C248.224 157.445 248.864 155.042 249.417 152.622C249.711 151.36 250.039 149.079 248.639 148.37C248.385 148.236 248.103 148.168 247.816 148.171C247.529 148.174 247.248 148.248 246.997 148.387Z" fill="#FA4FCA"/>
</g>
<path d="M211.44 137.271C213.341 140.59 215.26 146.278 209.815 147.955C204.37 149.631 201.033 145.12 197.455 140.158C193.877 135.197 188.189 134.73 179.2 135.923C170.211 137.116 168.829 132.466 165.181 125.292C161.534 118.118 157.333 111.566 142.864 109.233C128.395 106.899 117.591 101.177 112.907 89.4396C110.072 82.3521 112.803 68.6958 112.803 68.6958C114.388 59.4722 112.73 49.9842 108.108 41.8459C103.487 33.7076 96.1891 27.4217 87.4558 24.0576C78.7226 20.6935 69.0935 20.4589 60.2067 23.3939C51.32 26.3288 43.7246 32.252 38.7127 40.1557L38.488 40.536C38.3912 40.658 38.3099 40.7916 38.246 40.9336C35.3393 45.7455 33.1552 50.9583 31.7635 56.405C24.4513 54.1923 19.5765 49.7497 15.3068 44.3044C11.037 38.8592 8.5477 32.4631 4.5718 33.9325C0.595895 35.4019 -1.01176 45.3416 0.647747 55.9037C2.30726 66.4658 14.1313 86.086 26.5776 93.9341C26.5776 93.9341 24.8489 77.0451 29.8447 66.0163C28.4846 76.6072 28.7937 87.3458 30.7609 97.8409C40.408 98.2567 50.0551 97.0172 59.2837 94.1761C52.6975 99.0336 41.8416 102.629 25.1774 101.592C17.2428 101.091 13.2496 99.8634 10.3455 101.143C7.14749 102.508 6.78447 105.775 7.18206 108.939C8.1501 116.735 25.696 137.6 62.8793 131.411C57.9876 133.543 52.82 134.974 47.5289 135.664C62.1014 152.587 84.5566 160.798 102.846 159.554C124.661 158.084 137.419 144.774 149.295 146.416C159.995 147.885 161.395 155.405 170.177 155.059C178.958 154.714 180.549 149.752 191.024 151.446C197.109 152.432 201.033 161.058 211.768 157.41C220.221 154.679 220.221 140.331 211.44 137.271Z" fill="#BA68C8"/>
<path opacity="0.8" d="M211.44 137.271C213.341 140.59 215.26 146.278 209.815 147.955C204.37 149.631 201.033 145.12 197.455 140.158C193.877 135.197 188.189 134.73 179.2 135.923C170.211 137.116 168.829 132.466 165.181 125.292C161.534 118.118 157.333 111.566 142.864 109.233C128.395 106.899 117.591 101.177 112.907 89.4396C110.072 82.3521 112.803 68.6958 112.803 68.6958C114.388 59.4722 112.73 49.9842 108.108 41.8459C103.487 33.7076 96.1891 27.4217 87.4558 24.0576C78.7226 20.6935 69.0934 20.4589 60.2067 23.3939C51.32 26.3288 43.7247 32.252 38.7127 40.1557L38.488 40.536C38.3912 40.658 38.3099 40.7916 38.246 40.9336C35.3393 45.7455 33.1552 50.9583 31.7635 56.405C24.4513 54.1923 19.5765 49.7497 15.3068 44.3044C11.037 38.8592 8.5477 32.4631 4.5718 33.9325C0.595896 35.4019 -1.01176 45.3416 0.647748 55.9037C2.30726 66.4658 14.1313 86.086 26.5776 93.9341C26.5776 93.9341 24.8489 77.0451 29.8447 66.0163C28.4846 76.6072 28.7937 87.3458 30.7609 97.8408C40.408 98.2566 50.0551 97.0172 59.2837 94.1761C52.6975 99.0336 41.8416 102.629 25.1774 101.592C17.2428 101.091 13.2496 99.8634 10.3455 101.143C7.14749 102.508 6.78447 105.775 7.18206 108.939C8.1501 116.735 25.696 137.6 62.8793 131.411C57.9876 133.543 52.82 134.974 47.5289 135.664C62.1014 152.587 84.5566 160.798 102.846 159.554C124.661 158.084 137.419 144.774 149.295 146.416C159.995 147.885 161.395 155.405 170.177 155.059C178.958 154.714 180.549 149.752 191.024 151.446C197.109 152.432 201.033 161.058 211.768 157.41C220.221 154.679 220.221 140.331 211.44 137.271Z" fill="white"/>
<path d="M48.0495 87.5372C45.4453 86.1564 43.2305 84.1424 41.6091 81.6808C39.9878 79.2191 39.0121 76.3889 38.7719 73.4511C38.2184 67.724 43.165 67.4401 46.6537 71.655C49.698 75.3127 52.399 76.7718 56.6558 76.3087C60.9126 75.8457 63.383 77.9596 61.15 82.1231C59.41 85.3056 53.213 90.0557 48.0495 87.5372Z" fill="#F16595"/>
<path d="M77.6955 61.5565C78.1622 66.7425 75.1544 71.1333 70.9884 71.5136C66.8223 71.8939 63.0711 68.0563 62.6044 62.8703C62.1377 57.6844 65.1455 53.2936 69.3116 52.9133C73.4776 52.533 77.2461 56.4397 77.6955 61.5565Z" fill="#F16595"/>
<path d="M50.4326 57.8741C46.6641 61.3314 41.7893 62.1612 39.3692 59.6028C36.9491 57.0444 38.1764 52.2042 41.9449 48.7123C45.7134 45.2204 50.5882 44.4079 52.991 46.9836C55.3938 49.5593 54.2702 54.2785 50.4326 57.8741Z" fill="#F16595"/>
</svg>
